<?xml version="1.0" encoding="utf-8"?>
<!-- Generator: Adobe Illustrator 19.2.1, SVG Export Plug-In . SVG Version: 6.00 Build 0)  -->
<svg version="1.1" id="layer" xmlns="http://www.w3.org/2000/svg" xmlns:xlink="http://www.w3.org/1999/xlink" x="0px" y="0px"
	 viewBox="18 233 608 178" style="enable-background:new 0 0 652 652;" xml:space="preserve">
<style type="text/css">
	.st0{fill:#0062A7;}
</style>
<g>
	<path class="st0" d="M116.4,235.8c-15.1,0-25.2,3.3-25.2,3.3c-6.4,1.5-13.3,6-15.7,9.1c-1.3,1.6-53.9,79.4-53.9,79.4h35.7
		c0,0,26-37.6,29.1-41.8c4.6,3.4,8,6.1,10.1,17.5c2.1,11.4-9.4,39.2-9.4,39.2H70.8l-9.3,29.9h48.5l41.2-136.5H116.4z M106.1,278
		H92.2l24.5-37.4L106.1,278z"/>
	<path class="st0" d="M154.6,235.8l-41.7,139.1H61.2l-9.1,30.9h84.3l17.3-63.1c0,0,6-28,14.9-39.5c8.9-11.5,13.9-14.2,20.5-17.6
		c0.6,4.2,3.8,42,3.8,42l35.5,0c0,0-5.7-78.3-5.9-79.9c-0.5-3.1-4.7-7.6-10.1-9.1c0,0-8.1-2.9-23.1-2.9
		C174.3,235.8,154.6,235.8,154.6,235.8 M186.2,240.2l1.9,37.6l-13.8,0L186.2,240.2z"/>
	<path class="st0" d="M151,399.2l1.8,5l1.8-5h2v6.9h-1.3v-5.6l-1.9,5.6h-1.1l-1.9-5.6v5.6H149v-6.9H151z M141.9,400.4v-1.2h5.9v1.2
		h-2.3v5.8h-1.4v-5.8H141.9z"/>
	<path class="st0" d="M295.6,241.8l28.1,86.1h-11.3l-6.9-22.4h-32.8l-6.9,22.4h-10.9l28.9-86.1H295.6z M302.6,296.1l-13.2-42.9h-0.3
		l-13.6,42.9H302.6z"/>
	<path class="st0" d="M329.8,278.6c0-4.6-0.4-9.1-0.5-13.6h10l0.4,9.4h0.2c3.3-7.2,8.6-10.2,15.9-10.2c11,0,18.4,6.3,18.4,20.1v43.7
		h-10.4v-40.6c0-10-3.7-14.3-10.4-14.3c-8.1,0-13.3,5.7-13.3,17v37.9h-10.4V278.6z"/>
	<path class="st0" d="M414.5,327.2c-2.5,0.9-5.9,1.6-8.8,1.6c-9.5,0-14.6-3.8-14.6-14.9v-40.5h-10V265h10v-12.8l10.4-3.1V265h13v8.4
		h-13v37.1c0,7.2,1.9,9.9,6.5,9.9c2.6,0,4.4-0.7,6.4-1.6V327.2z"/>
	<path class="st0" d="M465.2,314.3c0,4.6,0.4,9.1,0.5,13.6h-10l-0.4-9.4h-0.2c-3.3,7.2-8.6,10.2-15.9,10.2c-11,0-18.4-6.3-18.4-20.1
		V265h10.4v40.6c0,10,3.7,14.3,10.4,14.3c8.1,0,13.3-5.7,13.3-17V265h10.4V314.3z"/>
	<path class="st0" d="M477.8,278.6c0-4.6-0.4-9.1-0.5-13.6h10l0.4,9.4h0.2c3.3-7.2,8.6-10.2,15.9-10.2c11,0,18.4,6.3,18.4,20.1v43.7
		h-10.4v-40.6c0-10-3.7-14.3-10.4-14.3c-8.1,0-13.3,5.7-13.3,17v37.9h-10.4V278.6z"/>
	<path class="st0" d="M542.5,299.5c0,14.6,5.7,21.3,17.1,21.3c5.2,0,10.9-2.6,14.4-5.2l0.5,9.4c-4.9,2.3-11.3,3.7-17.6,3.7
		c-16.7,0-25.3-12.6-25.3-32.3c0-19.7,8.6-32.3,24.3-32.3c14.2,0,22.1,11.3,22.1,29.8v5.6H542.5z M567.7,291.7
		c0-13.1-4.1-19.6-12.3-19.6c-6.7,0-12.6,4.9-12.8,19.6H567.7z"/>
	<path class="st0" d="M584.3,315.7c4.7,2.8,9.6,4.7,14.8,4.7c7.9,0,12-4.1,12-8.9c0-4.3-2.2-7.3-8-9.9l-6.9-3.1
		c-9-4.1-12.3-8.1-12.3-16.2c0-10.4,8-18.3,20.2-18.3c5.2,0,9.7,0.9,13.3,2.2l-0.5,8.9c-3.2-1.5-7.6-2.7-12.3-2.7
		c-6.8,0-10.4,3.7-10.4,8.6c0,5.1,3.7,7.9,10.6,10.6l3.7,1.5c7.6,3.1,12.5,8.3,12.5,16c0,10.9-5.8,19.5-20.2,19.5
		c-6.5,0-12.5-1.4-17-3.7L584.3,315.7z"/>
	<polygon class="st0" points="376.2,348.3 387.9,348.3 387.9,350.3 378.6,350.3 378.6,358.9 387.4,358.9 387.4,360.9 378.6,360.9 
		378.6,370.2 388.3,370.2 388.3,372.2 376.2,372.2 	"/>
	<polygon class="st0" points="398.9,359.6 390.8,348.3 393.6,348.3 400.3,358 407.1,348.3 409.8,348.3 401.7,359.6 410.4,372.2 
		407.5,372.2 400.2,361.3 392.7,372.2 390,372.2 	"/>
	<path class="st0" d="M412.9,348.3h5.9c4.5,0,7.4,2.3,7.4,6.8c0,4.5-3.4,6.8-7.6,6.8h-3.3v10.4h-2.4V348.3z M415.3,359.8h1.6
		c3.6,0,6.9-0.4,6.9-4.7c0-3-1.7-4.7-4.7-4.7h-3.8V359.8z"/>
	<polygon class="st0" points="429.4,348.3 441.1,348.3 441.1,350.3 431.7,350.3 431.7,358.9 440.6,358.9 440.6,360.9 431.7,360.9 
		431.7,370.2 441.5,370.2 441.5,372.2 429.4,372.2 	"/>
	<path class="st0" d="M462.3,351c-1.5-0.8-3.7-1-5.3-1c-6.2,0-9.7,4.4-9.7,10.3c0,6,3.4,10.3,9.7,10.3c1.6,0,4-0.2,5.3-1l0.1,2.1
		c-1.3,0.8-4,1-5.5,1c-7.5,0-12.1-5-12.1-12.4c0-7.3,4.7-12.4,12.1-12.4c1.4,0,4.3,0.2,5.5,0.9L462.3,351z"/>
	<polygon class="st0" points="472.5,350.3 465.4,350.3 465.4,348.3 481.9,348.3 481.9,350.3 474.8,350.3 474.8,372.2 472.5,372.2 	
		"/>
	<path class="st0" d="M492.7,369.2c1.4,0.9,3.1,1.4,5.3,1.4c3,0,5.4-1.5,5.4-4.9c0-4.7-11-5.3-11-11.6c0-3.8,3.4-6.2,7.6-6.2
		c1.2,0,3.1,0.2,4.7,0.8l-0.4,2.2c-1.1-0.6-2.7-0.9-4.4-0.9c-2.5,0-5.2,1-5.2,4.1c0,4.8,11,4.8,11,11.8c0,4.8-4.2,6.8-7.9,6.8
		c-2.3,0-4.2-0.5-5.4-1L492.7,369.2z"/>
	<path class="st0" d="M527,363.9c0,7.1-5.2,8.8-8.7,8.8s-8.7-1.7-8.7-8.8v-15.6h2.4v15.6c0,3.9,2.2,6.7,6.3,6.7
		c4.2,0,6.3-2.8,6.3-6.7v-15.6h2.4V363.9z"/>
	<path class="st0" d="M548.4,351c-1.5-0.8-3.7-1-5.3-1c-6.2,0-9.7,4.4-9.7,10.3c0,6,3.4,10.3,9.7,10.3c1.6,0,4-0.2,5.3-1l0.1,2.1
		c-1.3,0.8-4,1-5.5,1c-7.5,0-12.1-5-12.1-12.4c0-7.3,4.7-12.4,12.1-12.4c1.4,0,4.2,0.2,5.5,0.9L548.4,351z"/>
	<path class="st0" d="M570.6,351c-1.5-0.8-3.7-1-5.3-1c-6.2,0-9.7,4.4-9.7,10.3c0,6,3.4,10.3,9.7,10.3c1.6,0,4-0.2,5.3-1l0.1,2.1
		c-1.3,0.8-4,1-5.5,1c-7.5,0-12.1-5-12.1-12.4c0-7.3,4.7-12.4,12.1-12.4c1.4,0,4.2,0.2,5.5,0.9L570.6,351z"/>
	<polygon class="st0" points="576.3,348.3 588.1,348.3 588.1,350.3 578.7,350.3 578.7,358.9 587.6,358.9 587.6,360.9 578.7,360.9 
		578.7,370.2 588.5,370.2 588.5,372.2 576.3,372.2 	"/>
	<path class="st0" d="M592.1,369.2c1.4,0.9,3.1,1.4,5.3,1.4c3,0,5.4-1.5,5.4-4.9c0-4.7-11-5.3-11-11.6c0-3.8,3.4-6.2,7.6-6.2
		c1.2,0,3.1,0.2,4.7,0.8l-0.4,2.2c-1.1-0.6-2.7-0.9-4.4-0.9c-2.5,0-5.2,1-5.2,4.1c0,4.8,11,4.8,11,11.8c0,4.8-4.2,6.8-7.9,6.8
		c-2.3,0-4.2-0.5-5.4-1L592.1,369.2z"/>
	<path class="st0" d="M608.6,369.2c1.4,0.9,3.1,1.4,5.3,1.4c3,0,5.4-1.5,5.4-4.9c0-4.7-11-5.3-11-11.6c0-3.8,3.4-6.2,7.6-6.2
		c1.2,0,3.1,0.2,4.7,0.8l-0.4,2.2c-1.1-0.6-2.7-0.9-4.4-0.9c-2.5,0-5.2,1-5.2,4.1c0,4.8,11,4.8,11,11.8c0,4.8-4.2,6.8-7.9,6.8
		c-2.3,0-4.2-0.5-5.4-1L608.6,369.2z"/>
</g>
</svg>
